<mxfile host="app.diagrams.net" modified="2021-03-01T04:06:20.902Z" agent="5.0 (Macintosh; Intel Mac OS X 11_2_1) AppleWebKit/537.36 (KHTML, like Gecko) Chrome/88.0.4324.192 Safari/537.36" etag="kMlbU-S96pMCm2uJ9jGZ" version="14.1.8" type="github">
  <diagram id="nsVZ0QjiAOskGajyH8Sn" name="Page-1">
    <mxGraphModel dx="1426" dy="821" grid="1" gridSize="10" guides="1" tooltips="1" connect="1" arrows="1" fold="1" page="1" pageScale="1" pageWidth="827" pageHeight="1169" math="0" shadow="0">
      <root>
        <mxCell id="0" />
        <mxCell id="1" parent="0" />
        <mxCell id="PoibLMgNMMtjzj_5lVRd-1" value="" style="rounded=1;whiteSpace=wrap;html=1;" parent="1" vertex="1">
          <mxGeometry x="160" y="130" width="610" height="210" as="geometry" />
        </mxCell>
        <mxCell id="PoibLMgNMMtjzj_5lVRd-183" value="" style="shape=ext;rounded=1;html=1;whiteSpace=wrap;dashed=1;dashPattern=1 4;" parent="1" vertex="1">
          <mxGeometry x="170" y="157.5" width="360" height="175" as="geometry" />
        </mxCell>
        <mxCell id="PoibLMgNMMtjzj_5lVRd-179" style="edgeStyle=orthogonalEdgeStyle;rounded=0;orthogonalLoop=1;jettySize=auto;html=1;exitX=0.5;exitY=1;exitDx=0;exitDy=0;entryX=0.5;entryY=0;entryDx=0;entryDy=0;strokeColor=#000000;fillColor=#E6E6E6;" parent="1" source="PoibLMgNMMtjzj_5lVRd-1" target="PoibLMgNMMtjzj_5lVRd-172" edge="1">
          <mxGeometry relative="1" as="geometry" />
        </mxCell>
        <mxCell id="PoibLMgNMMtjzj_5lVRd-2" value="" style="shape=ext;rounded=1;html=1;whiteSpace=wrap;dashed=1;dashPattern=1 4;" parent="1" vertex="1">
          <mxGeometry x="655" y="260" width="100" height="70" as="geometry" />
        </mxCell>
        <mxCell id="PoibLMgNMMtjzj_5lVRd-3" value="" style="shape=ext;rounded=1;html=1;whiteSpace=wrap;dashed=1;dashPattern=1 4;" parent="1" vertex="1">
          <mxGeometry x="655" y="155" width="100" height="95" as="geometry" />
        </mxCell>
        <mxCell id="PoibLMgNMMtjzj_5lVRd-4" value="" style="shape=ext;rounded=1;html=1;whiteSpace=wrap;dashed=1;dashPattern=1 4;" parent="1" vertex="1">
          <mxGeometry x="540" y="155" width="100" height="175" as="geometry" />
        </mxCell>
        <mxCell id="PoibLMgNMMtjzj_5lVRd-5" value="" style="shape=ext;rounded=1;html=1;whiteSpace=wrap;dashed=1;dashPattern=1 4;" parent="1" vertex="1">
          <mxGeometry x="990" y="430" width="210" height="390" as="geometry" />
        </mxCell>
        <mxCell id="PoibLMgNMMtjzj_5lVRd-6" value="gtj" style="rounded=0;whiteSpace=wrap;html=1;fillColor=#E6E6E6;" parent="1" vertex="1">
          <mxGeometry x="390" y="215" width="60" height="30" as="geometry" />
        </mxCell>
        <mxCell id="PoibLMgNMMtjzj_5lVRd-7" value="sa128" style="rounded=0;whiteSpace=wrap;html=1;fillColor=#E6E6E6;" parent="1" vertex="1">
          <mxGeometry x="250" y="175" width="60" height="30" as="geometry" />
        </mxCell>
        <mxCell id="PoibLMgNMMtjzj_5lVRd-8" value="ew9" style="rounded=0;whiteSpace=wrap;html=1;fillColor=#E6E6E6;" parent="1" vertex="1">
          <mxGeometry x="460" y="295" width="60" height="30" as="geometry" />
        </mxCell>
        <mxCell id="PoibLMgNMMtjzj_5lVRd-9" value="gan" style="rounded=0;whiteSpace=wrap;html=1;fillColor=#E6E6E6;" parent="1" vertex="1">
          <mxGeometry x="675" y="175" width="60" height="30" as="geometry" />
        </mxCell>
        <mxCell id="PoibLMgNMMtjzj_5lVRd-10" value="et2" style="rounded=0;whiteSpace=wrap;html=1;fillColor=#E6E6E6;" parent="1" vertex="1">
          <mxGeometry x="250" y="255" width="60" height="30" as="geometry" />
        </mxCell>
        <mxCell id="PoibLMgNMMtjzj_5lVRd-11" value="zui" style="rounded=0;whiteSpace=wrap;html=1;fillColor=#E6E6E6;" parent="1" vertex="1">
          <mxGeometry x="320" y="175" width="60" height="30" as="geometry" />
        </mxCell>
        <mxCell id="PoibLMgNMMtjzj_5lVRd-12" value="et15" style="rounded=0;whiteSpace=wrap;html=1;fillColor=#E6E6E6;" parent="1" vertex="1">
          <mxGeometry x="180" y="255" width="60" height="30" as="geometry" />
        </mxCell>
        <mxCell id="PoibLMgNMMtjzj_5lVRd-13" value="stl" style="rounded=0;whiteSpace=wrap;html=1;fillColor=#E6E6E6;" parent="1" vertex="1">
          <mxGeometry x="180" y="175" width="60" height="30" as="geometry" />
        </mxCell>
        <mxCell id="PoibLMgNMMtjzj_5lVRd-14" value="em14" style="rounded=0;whiteSpace=wrap;html=1;fillColor=#E6E6E6;" parent="1" vertex="1">
          <mxGeometry x="180" y="215" width="60" height="30" as="geometry" />
        </mxCell>
        <mxCell id="PoibLMgNMMtjzj_5lVRd-15" value="us68" style="rounded=0;whiteSpace=wrap;html=1;fillColor=#E6E6E6;" parent="1" vertex="1">
          <mxGeometry x="460" y="215" width="60" height="30" as="geometry" />
        </mxCell>
        <mxCell id="PoibLMgNMMtjzj_5lVRd-16" value="owt1" style="rounded=0;whiteSpace=wrap;html=1;fillColor=#E6E6E6;" parent="1" vertex="1">
          <mxGeometry x="250" y="295" width="60" height="30" as="geometry" />
        </mxCell>
        <mxCell id="PoibLMgNMMtjzj_5lVRd-17" value="id137" style="rounded=0;whiteSpace=wrap;html=1;fillColor=#E6E6E6;" parent="1" vertex="1">
          <mxGeometry x="180" y="295" width="60" height="30" as="geometry" />
        </mxCell>
        <mxCell id="PoibLMgNMMtjzj_5lVRd-18" value="id35" style="rounded=0;whiteSpace=wrap;html=1;fillColor=#E6E6E6;" parent="1" vertex="1">
          <mxGeometry x="460" y="255" width="60" height="30" as="geometry" />
        </mxCell>
        <mxCell id="PoibLMgNMMtjzj_5lVRd-19" value="oc27" style="rounded=0;whiteSpace=wrap;html=1;fillColor=#E6E6E6;" parent="1" vertex="1">
          <mxGeometry x="320" y="255" width="60" height="30" as="geometry" />
        </mxCell>
        <mxCell id="PoibLMgNMMtjzj_5lVRd-20" value="us44" style="rounded=0;whiteSpace=wrap;html=1;fillColor=#E6E6E6;" parent="1" vertex="1">
          <mxGeometry x="460" y="175" width="60" height="30" as="geometry" />
        </mxCell>
        <mxCell id="PoibLMgNMMtjzj_5lVRd-21" value="sg52" style="rounded=0;whiteSpace=wrap;html=1;fillColor=#E6E6E6;" parent="1" vertex="1">
          <mxGeometry x="390" y="255" width="60" height="30" as="geometry" />
        </mxCell>
        <mxCell id="PoibLMgNMMtjzj_5lVRd-22" value="vn140" style="rounded=0;whiteSpace=wrap;html=1;fillColor=#E6E6E6;" parent="1" vertex="1">
          <mxGeometry x="390" y="295" width="60" height="30" as="geometry" />
        </mxCell>
        <mxCell id="PoibLMgNMMtjzj_5lVRd-23" value="stm" style="rounded=0;whiteSpace=wrap;html=1;fillColor=#E6E6E6;" parent="1" vertex="1">
          <mxGeometry x="675" y="215" width="60" height="30" as="geometry" />
        </mxCell>
        <mxCell id="PoibLMgNMMtjzj_5lVRd-24" value="sa127" style="rounded=0;whiteSpace=wrap;html=1;fillColor=#E6E6E6;" parent="1" vertex="1">
          <mxGeometry x="250" y="215" width="60" height="30" as="geometry" />
        </mxCell>
        <mxCell id="PoibLMgNMMtjzj_5lVRd-25" value="sg94" style="rounded=0;whiteSpace=wrap;html=1;fillColor=#E6E6E6;" parent="1" vertex="1">
          <mxGeometry x="390" y="175" width="60" height="30" as="geometry" />
        </mxCell>
        <mxCell id="PoibLMgNMMtjzj_5lVRd-26" value="utw" style="rounded=0;whiteSpace=wrap;html=1;fillColor=#E6E6E6;" parent="1" vertex="1">
          <mxGeometry x="320" y="215" width="60" height="30" as="geometry" />
        </mxCell>
        <mxCell id="PoibLMgNMMtjzj_5lVRd-115" style="edgeStyle=orthogonalEdgeStyle;rounded=0;orthogonalLoop=1;jettySize=auto;html=1;exitX=0.5;exitY=1;exitDx=0;exitDy=0;" parent="1" source="PoibLMgNMMtjzj_5lVRd-60" target="PoibLMgNMMtjzj_5lVRd-104" edge="1">
          <mxGeometry relative="1" as="geometry" />
        </mxCell>
        <mxCell id="XcVeGPaUejMlAvRpNJbj-27" style="edgeStyle=orthogonalEdgeStyle;rounded=0;orthogonalLoop=1;jettySize=auto;html=1;exitX=1;exitY=0.5;exitDx=0;exitDy=0;entryX=0;entryY=0.5;entryDx=0;entryDy=0;" edge="1" parent="1" source="PoibLMgNMMtjzj_5lVRd-60" target="XcVeGPaUejMlAvRpNJbj-7">
          <mxGeometry relative="1" as="geometry" />
        </mxCell>
        <mxCell id="XcVeGPaUejMlAvRpNJbj-28" style="edgeStyle=orthogonalEdgeStyle;rounded=0;orthogonalLoop=1;jettySize=auto;html=1;exitX=1;exitY=0.5;exitDx=0;exitDy=0;entryX=0;entryY=0.5;entryDx=0;entryDy=0;" edge="1" parent="1" source="PoibLMgNMMtjzj_5lVRd-60" target="XcVeGPaUejMlAvRpNJbj-16">
          <mxGeometry relative="1" as="geometry" />
        </mxCell>
        <mxCell id="XcVeGPaUejMlAvRpNJbj-32" style="edgeStyle=orthogonalEdgeStyle;rounded=0;orthogonalLoop=1;jettySize=auto;html=1;exitX=1;exitY=0.5;exitDx=0;exitDy=0;entryX=0;entryY=0.5;entryDx=0;entryDy=0;" edge="1" parent="1" source="PoibLMgNMMtjzj_5lVRd-60" target="XcVeGPaUejMlAvRpNJbj-33">
          <mxGeometry relative="1" as="geometry">
            <mxPoint x="630" y="680" as="targetPoint" />
          </mxGeometry>
        </mxCell>
        <mxCell id="PoibLMgNMMtjzj_5lVRd-60" value="lindorm/oceanbase" style="rounded=1;whiteSpace=wrap;html=1;fillColor=#E6E6E6;" parent="1" vertex="1">
          <mxGeometry x="376.25" y="570" width="180" height="60" as="geometry" />
        </mxCell>
        <mxCell id="PoibLMgNMMtjzj_5lVRd-67" value="&lt;div style=&quot;text-align: left&quot;&gt;&lt;br&gt;&lt;/div&gt;" style="text;html=1;align=center;verticalAlign=middle;resizable=0;points=[];autosize=1;" parent="1" vertex="1">
          <mxGeometry x="725" y="305" width="20" height="20" as="geometry" />
        </mxCell>
        <mxCell id="PoibLMgNMMtjzj_5lVRd-92" value="eu126" style="rounded=0;whiteSpace=wrap;html=1;fillColor=#E6E6E6;" parent="1" vertex="1">
          <mxGeometry x="320" y="295" width="60" height="30" as="geometry" />
        </mxCell>
        <mxCell id="PoibLMgNMMtjzj_5lVRd-93" value="em14-gray" style="rounded=0;whiteSpace=wrap;html=1;fillColor=#E6E6E6;" parent="1" vertex="1">
          <mxGeometry x="550" y="185" width="80" height="30" as="geometry" />
        </mxCell>
        <mxCell id="PoibLMgNMMtjzj_5lVRd-94" value="stl-gray" style="rounded=0;whiteSpace=wrap;html=1;fillColor=#E6E6E6;" parent="1" vertex="1">
          <mxGeometry x="550" y="225" width="80" height="30" as="geometry" />
        </mxCell>
        <mxCell id="PoibLMgNMMtjzj_5lVRd-95" value="sa128-gray" style="rounded=0;whiteSpace=wrap;html=1;fillColor=#E6E6E6;" parent="1" vertex="1">
          <mxGeometry x="550" y="265" width="80" height="30" as="geometry" />
        </mxCell>
        <mxCell id="PoibLMgNMMtjzj_5lVRd-96" value="stl-sim" style="rounded=0;whiteSpace=wrap;html=1;fillColor=#E6E6E6;" parent="1" vertex="1">
          <mxGeometry x="665" y="280" width="80" height="30" as="geometry" />
        </mxCell>
        <mxCell id="PoibLMgNMMtjzj_5lVRd-97" value="生产" style="text;html=1;align=center;verticalAlign=middle;resizable=0;points=[];autosize=1;" parent="1" vertex="1">
          <mxGeometry x="330" y="155" width="40" height="20" as="geometry" />
        </mxCell>
        <mxCell id="PoibLMgNMMtjzj_5lVRd-98" value="灰度" style="text;html=1;align=center;verticalAlign=middle;resizable=0;points=[];autosize=1;" parent="1" vertex="1">
          <mxGeometry x="570" y="155" width="40" height="20" as="geometry" />
        </mxCell>
        <mxCell id="PoibLMgNMMtjzj_5lVRd-99" value="弹性" style="text;html=1;align=center;verticalAlign=middle;resizable=0;points=[];autosize=1;" parent="1" vertex="1">
          <mxGeometry x="685" y="155" width="40" height="20" as="geometry" />
        </mxCell>
        <mxCell id="PoibLMgNMMtjzj_5lVRd-100" value="仿真" style="text;html=1;align=center;verticalAlign=middle;resizable=0;points=[];autosize=1;" parent="1" vertex="1">
          <mxGeometry x="685" y="260" width="40" height="20" as="geometry" />
        </mxCell>
        <mxCell id="PoibLMgNMMtjzj_5lVRd-119" value="&lt;meta charset=&quot;utf-8&quot;&gt;&lt;span style=&quot;color: rgb(0, 0, 0); font-family: helvetica; font-size: 12px; font-style: normal; font-weight: 400; letter-spacing: normal; text-align: center; text-indent: 0px; text-transform: none; word-spacing: 0px; background-color: rgb(248, 249, 250); display: inline; float: none;&quot;&gt;rmccontroller&lt;/span&gt;" style="text;whiteSpace=wrap;html=1;" parent="1" vertex="1">
          <mxGeometry x="170" y="130" width="90" height="30" as="geometry" />
        </mxCell>
        <mxCell id="PoibLMgNMMtjzj_5lVRd-180" style="edgeStyle=orthogonalEdgeStyle;rounded=0;orthogonalLoop=1;jettySize=auto;html=1;exitX=0.5;exitY=1;exitDx=0;exitDy=0;entryX=0.5;entryY=0;entryDx=0;entryDy=0;strokeColor=#000000;fillColor=#E6E6E6;" parent="1" source="PoibLMgNMMtjzj_5lVRd-120" target="PoibLMgNMMtjzj_5lVRd-172" edge="1">
          <mxGeometry relative="1" as="geometry" />
        </mxCell>
        <mxCell id="PoibLMgNMMtjzj_5lVRd-120" value="" style="rounded=1;whiteSpace=wrap;html=1;" parent="1" vertex="1">
          <mxGeometry x="780" y="130" width="143" height="210" as="geometry" />
        </mxCell>
        <mxCell id="PoibLMgNMMtjzj_5lVRd-124" value="" style="shape=ext;rounded=1;html=1;whiteSpace=wrap;dashed=1;dashPattern=1 4;" parent="1" vertex="1">
          <mxGeometry x="790" y="155" width="123" height="170" as="geometry" />
        </mxCell>
        <mxCell id="PoibLMgNMMtjzj_5lVRd-132" value="vlucanboss-drc" style="rounded=0;whiteSpace=wrap;html=1;fillColor=#E6E6E6;" parent="1" vertex="1">
          <mxGeometry x="800" y="170" width="103" height="30" as="geometry" />
        </mxCell>
        <mxCell id="PoibLMgNMMtjzj_5lVRd-133" value="zappinfo-drc" style="rounded=0;whiteSpace=wrap;html=1;fillColor=#E6E6E6;" parent="1" vertex="1">
          <mxGeometry x="800" y="210" width="103" height="30" as="geometry" />
        </mxCell>
        <mxCell id="PoibLMgNMMtjzj_5lVRd-156" value="&lt;font style=&quot;font-size: 12px&quot;&gt;&lt;span style=&quot;background-color: rgb(255 , 255 , 255)&quot;&gt;checkacceptancedrc&lt;/span&gt;&lt;/font&gt;" style="text;whiteSpace=wrap;html=1;" parent="1" vertex="1">
          <mxGeometry x="790" y="130" width="90" height="30" as="geometry" />
        </mxCell>
        <mxCell id="PoibLMgNMMtjzj_5lVRd-157" value="" style="startArrow=oval;startFill=0;startSize=7;endArrow=block;endFill=0;endSize=10;dashed=1;html=1;strokeColor=#000000;fillColor=#E6E6E6;entryX=0;entryY=0.5;entryDx=0;entryDy=0;" parent="1" source="PoibLMgNMMtjzj_5lVRd-104" target="PoibLMgNMMtjzj_5lVRd-176" edge="1">
          <mxGeometry relative="1" as="geometry">
            <mxPoint x="852" y="610" as="sourcePoint" />
            <mxPoint x="692" y="745" as="targetPoint" />
          </mxGeometry>
        </mxCell>
        <mxCell id="PoibLMgNMMtjzj_5lVRd-164" value="vlucanboss-odps" style="rounded=0;whiteSpace=wrap;html=1;fillColor=#E6E6E6;" parent="1" vertex="1">
          <mxGeometry x="800" y="250" width="103" height="30" as="geometry" />
        </mxCell>
        <mxCell id="PoibLMgNMMtjzj_5lVRd-165" value="zappinfo-odps" style="rounded=0;whiteSpace=wrap;html=1;fillColor=#E6E6E6;" parent="1" vertex="1">
          <mxGeometry x="800" y="290" width="103" height="30" as="geometry" />
        </mxCell>
        <mxCell id="XcVeGPaUejMlAvRpNJbj-3" value="" style="edgeStyle=orthogonalEdgeStyle;rounded=0;orthogonalLoop=1;jettySize=auto;html=1;" edge="1" parent="1" source="PoibLMgNMMtjzj_5lVRd-172" target="XcVeGPaUejMlAvRpNJbj-2">
          <mxGeometry relative="1" as="geometry" />
        </mxCell>
        <mxCell id="PoibLMgNMMtjzj_5lVRd-172" value="&lt;span&gt;listener&lt;/span&gt;" style="shape=process;whiteSpace=wrap;html=1;backgroundOutline=1;strokeColor=#000000;fillColor=#B3B3B3;" parent="1" vertex="1">
          <mxGeometry x="376.25" y="380" width="177.5" height="60" as="geometry" />
        </mxCell>
        <mxCell id="PoibLMgNMMtjzj_5lVRd-173" value="&lt;span&gt;元数据拓扑服务&amp;amp;&lt;br&gt;自动影响面&lt;/span&gt;" style="shape=process;whiteSpace=wrap;html=1;backgroundOutline=1;strokeColor=#000000;fillColor=#B3B3B3;" parent="1" vertex="1">
          <mxGeometry x="1010" y="540" width="177.5" height="60" as="geometry" />
        </mxCell>
        <mxCell id="PoibLMgNMMtjzj_5lVRd-174" value="&lt;span&gt;高精度聚合计算&lt;/span&gt;" style="shape=process;whiteSpace=wrap;html=1;backgroundOutline=1;strokeColor=#000000;fillColor=#B3B3B3;" parent="1" vertex="1">
          <mxGeometry x="1010" y="600" width="177.5" height="60" as="geometry" />
        </mxCell>
        <mxCell id="PoibLMgNMMtjzj_5lVRd-176" value="&lt;span&gt;增量同步&lt;/span&gt;" style="shape=process;whiteSpace=wrap;html=1;backgroundOutline=1;strokeColor=#000000;fillColor=#B3B3B3;" parent="1" vertex="1">
          <mxGeometry x="1010" y="740" width="177.5" height="60" as="geometry" />
        </mxCell>
        <mxCell id="PoibLMgNMMtjzj_5lVRd-104" value="AntQ" style="swimlane;childLayout=stackLayout;horizontal=1;fillColor=#E6E6E6;horizontalStack=1;resizeParent=1;resizeParentMax=0;resizeLast=0;collapsible=0;strokeColor=none;stackBorder=10;stackSpacing=-12;resizable=1;align=center;points=[];fontColor=#000000;" parent="1" vertex="1">
          <mxGeometry x="318.25" y="720" width="296" height="100" as="geometry" />
        </mxCell>
        <mxCell id="PoibLMgNMMtjzj_5lVRd-105" value="" style="shape=step;perimeter=stepPerimeter;fixedSize=1;points=[];fillColor=#E6E6E6;" parent="PoibLMgNMMtjzj_5lVRd-104" vertex="1">
          <mxGeometry x="10" y="33" width="100" height="57" as="geometry" />
        </mxCell>
        <mxCell id="PoibLMgNMMtjzj_5lVRd-106" value="" style="shape=step;perimeter=stepPerimeter;fixedSize=1;points=[];fillColor=#E6E6E6;" parent="PoibLMgNMMtjzj_5lVRd-104" vertex="1">
          <mxGeometry x="98" y="33" width="100" height="57" as="geometry" />
        </mxCell>
        <mxCell id="PoibLMgNMMtjzj_5lVRd-107" value="" style="shape=step;perimeter=stepPerimeter;fixedSize=1;points=[];fillColor=#E6E6E6;" parent="PoibLMgNMMtjzj_5lVRd-104" vertex="1">
          <mxGeometry x="186" y="33" width="100" height="57" as="geometry" />
        </mxCell>
        <mxCell id="PoibLMgNMMtjzj_5lVRd-185" value="多维度数据服务" style="text;html=1;align=center;verticalAlign=middle;resizable=0;points=[];autosize=1;" parent="1" vertex="1">
          <mxGeometry x="1000" y="430" width="100" height="20" as="geometry" />
        </mxCell>
        <mxCell id="IravUTmpIhsH4K6AYedB-1" value="1. 订阅增量数据&amp;amp;全量数据初始化" style="text;html=1;align=center;verticalAlign=middle;resizable=0;points=[];autosize=1;" parent="1" vertex="1">
          <mxGeometry x="530" y="460" width="190" height="20" as="geometry" />
        </mxCell>
        <mxCell id="IravUTmpIhsH4K6AYedB-2" value="2. 多流合并" style="text;html=1;align=center;verticalAlign=middle;resizable=0;points=[];autosize=1;" parent="1" vertex="1">
          <mxGeometry x="525" y="520" width="80" height="20" as="geometry" />
        </mxCell>
        <mxCell id="IravUTmpIhsH4K6AYedB-4" value="&lt;span&gt;元数据查询&lt;/span&gt;" style="shape=process;whiteSpace=wrap;html=1;backgroundOutline=1;strokeColor=#000000;fillColor=#B3B3B3;" parent="1" vertex="1">
          <mxGeometry x="1006.25" y="460" width="177.5" height="60" as="geometry" />
        </mxCell>
        <mxCell id="XcVeGPaUejMlAvRpNJbj-5" value="" style="edgeStyle=orthogonalEdgeStyle;rounded=0;orthogonalLoop=1;jettySize=auto;html=1;" edge="1" parent="1" source="XcVeGPaUejMlAvRpNJbj-2" target="XcVeGPaUejMlAvRpNJbj-4">
          <mxGeometry relative="1" as="geometry" />
        </mxCell>
        <mxCell id="XcVeGPaUejMlAvRpNJbj-2" value="元数据模型" style="whiteSpace=wrap;html=1;fillColor=#B3B3B3;" vertex="1" parent="1">
          <mxGeometry x="405" y="460" width="120" height="60" as="geometry" />
        </mxCell>
        <mxCell id="XcVeGPaUejMlAvRpNJbj-6" style="edgeStyle=orthogonalEdgeStyle;rounded=0;orthogonalLoop=1;jettySize=auto;html=1;exitX=0;exitY=0.75;exitDx=0;exitDy=0;entryX=0.5;entryY=0;entryDx=0;entryDy=0;" edge="1" parent="1" source="XcVeGPaUejMlAvRpNJbj-4" target="PoibLMgNMMtjzj_5lVRd-60">
          <mxGeometry relative="1" as="geometry">
            <Array as="points">
              <mxPoint x="600" y="505" />
              <mxPoint x="600" y="540" />
              <mxPoint x="466" y="540" />
            </Array>
          </mxGeometry>
        </mxCell>
        <mxCell id="XcVeGPaUejMlAvRpNJbj-29" style="edgeStyle=orthogonalEdgeStyle;rounded=0;orthogonalLoop=1;jettySize=auto;html=1;exitX=1;exitY=0.5;exitDx=0;exitDy=0;entryX=0;entryY=0.5;entryDx=0;entryDy=0;" edge="1" parent="1" source="XcVeGPaUejMlAvRpNJbj-4" target="IravUTmpIhsH4K6AYedB-4">
          <mxGeometry relative="1" as="geometry" />
        </mxCell>
        <mxCell id="XcVeGPaUejMlAvRpNJbj-4" value="ORM映射" style="whiteSpace=wrap;html=1;fillColor=#B3B3B3;" vertex="1" parent="1">
          <mxGeometry x="730" y="460" width="120" height="60" as="geometry" />
        </mxCell>
        <mxCell id="XcVeGPaUejMlAvRpNJbj-30" style="edgeStyle=orthogonalEdgeStyle;rounded=0;orthogonalLoop=1;jettySize=auto;html=1;exitX=1;exitY=0.5;exitDx=0;exitDy=0;" edge="1" parent="1" source="XcVeGPaUejMlAvRpNJbj-7" target="PoibLMgNMMtjzj_5lVRd-173">
          <mxGeometry relative="1" as="geometry" />
        </mxCell>
        <mxCell id="XcVeGPaUejMlAvRpNJbj-7" value="拓扑链路自动查询" style="rounded=1;whiteSpace=wrap;html=1;fillColor=#E6E6E6;" vertex="1" parent="1">
          <mxGeometry x="712" y="540" width="180" height="60" as="geometry" />
        </mxCell>
        <mxCell id="XcVeGPaUejMlAvRpNJbj-31" style="edgeStyle=orthogonalEdgeStyle;rounded=0;orthogonalLoop=1;jettySize=auto;html=1;exitX=1;exitY=0.5;exitDx=0;exitDy=0;" edge="1" parent="1" source="XcVeGPaUejMlAvRpNJbj-16" target="PoibLMgNMMtjzj_5lVRd-174">
          <mxGeometry relative="1" as="geometry" />
        </mxCell>
        <mxCell id="XcVeGPaUejMlAvRpNJbj-16" value="聚合计算服务" style="rounded=1;whiteSpace=wrap;html=1;fillColor=#E6E6E6;" vertex="1" parent="1">
          <mxGeometry x="712" y="600" width="180" height="60" as="geometry" />
        </mxCell>
        <mxCell id="XcVeGPaUejMlAvRpNJbj-26" style="edgeStyle=orthogonalEdgeStyle;rounded=0;orthogonalLoop=1;jettySize=auto;html=1;exitX=0.5;exitY=1;exitDx=0;exitDy=0;entryX=0.5;entryY=0;entryDx=0;entryDy=0;" edge="1" parent="1" source="XcVeGPaUejMlAvRpNJbj-19" target="PoibLMgNMMtjzj_5lVRd-172">
          <mxGeometry relative="1" as="geometry" />
        </mxCell>
        <mxCell id="XcVeGPaUejMlAvRpNJbj-19" value="" style="rounded=1;whiteSpace=wrap;html=1;" vertex="1" parent="1">
          <mxGeometry x="930" y="130" width="160" height="210" as="geometry" />
        </mxCell>
        <mxCell id="XcVeGPaUejMlAvRpNJbj-20" value="接口方式&amp;amp;定制化通道" style="text;html=1;align=center;verticalAlign=middle;resizable=0;points=[];autosize=1;" vertex="1" parent="1">
          <mxGeometry x="931.5" y="135" width="130" height="20" as="geometry" />
        </mxCell>
        <mxCell id="XcVeGPaUejMlAvRpNJbj-21" value="" style="shape=ext;rounded=1;html=1;whiteSpace=wrap;dashed=1;dashPattern=1 4;" vertex="1" parent="1">
          <mxGeometry x="948.5" y="175" width="123" height="130" as="geometry" />
        </mxCell>
        <mxCell id="XcVeGPaUejMlAvRpNJbj-22" value="antmonitor" style="rounded=0;whiteSpace=wrap;html=1;fillColor=#E6E6E6;" vertex="1" parent="1">
          <mxGeometry x="958.5" y="190" width="103" height="30" as="geometry" />
        </mxCell>
        <mxCell id="XcVeGPaUejMlAvRpNJbj-23" value="dayu" style="rounded=0;whiteSpace=wrap;html=1;fillColor=#E6E6E6;" vertex="1" parent="1">
          <mxGeometry x="958.5" y="230" width="103" height="30" as="geometry" />
        </mxCell>
        <mxCell id="XcVeGPaUejMlAvRpNJbj-24" value="habaseline" style="rounded=0;whiteSpace=wrap;html=1;fillColor=#E6E6E6;" vertex="1" parent="1">
          <mxGeometry x="958.5" y="270" width="103" height="30" as="geometry" />
        </mxCell>
        <mxCell id="XcVeGPaUejMlAvRpNJbj-35" style="edgeStyle=orthogonalEdgeStyle;rounded=0;orthogonalLoop=1;jettySize=auto;html=1;exitX=1;exitY=0.5;exitDx=0;exitDy=0;entryX=0;entryY=0.5;entryDx=0;entryDy=0;" edge="1" parent="1" source="XcVeGPaUejMlAvRpNJbj-33" target="XcVeGPaUejMlAvRpNJbj-34">
          <mxGeometry relative="1" as="geometry" />
        </mxCell>
        <mxCell id="XcVeGPaUejMlAvRpNJbj-33" value="视图维度影响面分析" style="rounded=1;whiteSpace=wrap;html=1;fillColor=#E6E6E6;" vertex="1" parent="1">
          <mxGeometry x="712" y="660" width="180" height="60" as="geometry" />
        </mxCell>
        <mxCell id="XcVeGPaUejMlAvRpNJbj-34" value="&lt;span&gt;精细化影响面&lt;/span&gt;" style="shape=process;whiteSpace=wrap;html=1;backgroundOutline=1;strokeColor=#000000;fillColor=#B3B3B3;" vertex="1" parent="1">
          <mxGeometry x="1010" y="660" width="177.5" height="60" as="geometry" />
        </mxCell>
      </root>
    </mxGraphModel>
  </diagram>
</mxfile>
